# Blender 3.3.0
# www.blender.org
mtllib endBoard.mtl
g Cylinder01_0_Cylinder01_0
v 0.746631 2.967298 0.278418
v 0.746631 2.967298 0.048305
v 1.718380 2.766105 0.048305
v 1.718380 2.766105 0.278418
v 0.887038 3.645451 0.278419
v 1.858786 3.444257 0.278419
v 1.012036 4.249186 0.278419
v 0.040288 4.450379 0.278419
v -0.084711 3.846644 0.278419
v 1.137035 4.852920 0.278419
v 1.280075 5.543795 0.278419
v 0.290285 5.657849 0.278419
v 0.165286 5.054114 0.278419
v 1.280075 5.543795 0.048306
v 0.290285 5.657849 0.048306
v -1.056459 4.047837 0.278419
v -0.931461 4.651572 0.278419
v -1.903209 4.852765 0.278419
v -2.028208 4.249031 0.278419
v -0.806462 5.255307 0.278419
v -0.703336 5.753399 0.278419
v -1.653212 6.060234 0.278419
v -1.778211 5.456500 0.278419
v -0.703336 5.753399 0.048306
v -1.653212 6.060234 0.048306
v -1.162831 3.534069 0.278419
v -1.162831 3.534069 0.048306
v -0.209710 3.242909 0.048306
v -0.209710 3.242909 0.278419
v 2.361770 4.605724 0.048306
v 2.361770 4.605724 0.278419
v 2.108783 4.651728 0.278419
v 2.108783 4.651728 0.048306
v 2.438045 4.974128 0.278419
v 2.251824 5.342603 0.278419
v 2.438045 4.974128 0.048306
v 2.251824 5.342603 0.048306
v -2.005570 5.626282 0.278419
v -2.005570 5.626282 0.048306
v -1.778211 5.456500 0.048306
v -1.891085 6.179238 0.048306
v -1.891084 6.179238 0.278419
v 2.291974 4.089627 0.278419
v 2.317447 4.212661 0.278419
v 1.983785 4.047993 0.278419
v 2.317447 4.212661 0.048306
v 2.278341 4.511179 0.048306
v 2.278341 4.511179 0.278419
v -1.973420 5.473152 0.048306
v -1.973420 5.473152 0.278419
v -2.056551 5.071635 0.278419
v -2.056551 5.071635 0.048306
v -1.903209 4.852765 0.048306
v 2.291974 4.089627 0.048306
v 1.983785 4.047993 0.048306
v -2.240290 4.072774 0.048306
v -2.240290 4.072774 0.278419
v -2.028208 4.249030 0.048306
v -2.313618 3.718604 0.278419
v -2.153207 3.645295 0.278419
v -2.313618 3.718604 0.048306
v -2.153207 3.645295 0.048306
v 2.095490 3.490949 0.048306
v 2.095490 3.490949 0.278419
v 1.858786 3.444257 0.048306
v 2.182490 3.911153 0.278419
v 2.182490 3.911153 0.048306
v -2.196467 4.841335 0.278419
v -2.403717 4.571833 0.278419
v -2.403717 4.571833 0.048306
v -2.438045 4.406031 0.048306
v -2.438045 4.406031 0.278419
v -2.196467 4.841335 0.048306
v 2.117596 3.192786 0.278419
v 2.117596 3.192785 0.048306
v 1.920564 2.851675 0.048305
v 1.920564 2.851674 0.278418
v 0.103341 6.162393 0.048306
v 0.166953 6.162393 -0.054034
v -0.087497 6.162393 -0.054034
v -0.023884 6.162393 0.048306
v 0.103341 6.162393 -0.156374
v -0.023884 6.162393 -0.156374
v 0.103341 4.453708 0.048306
v 0.166953 4.453708 -0.054034
v -0.023884 4.453708 0.048306
v -0.087497 4.453708 -0.054034
v -0.023884 4.453708 -0.156374
v 0.103341 4.453708 -0.156374
v 0.103341 2.745024 0.048305
v 0.166953 2.745024 -0.054035
v -0.023884 2.745024 0.048305
v -0.087497 2.745024 -0.054035
v -0.023884 2.745024 -0.156375
v 0.103341 2.745024 -0.156375
v 0.103341 1.036339 0.048305
v 0.166953 1.036339 -0.054035
v -0.023884 1.036339 0.048305
v -0.087497 1.036339 -0.054035
v -0.023884 1.036339 -0.156375
v 0.103341 1.036339 -0.156375
v 0.103341 -0.672345 0.048305
v 0.166953 -0.672345 -0.054035
v -0.023884 -0.672345 0.048305
v -0.087497 -0.672345 -0.054035
v -0.023884 -0.672345 -0.156375
v 0.103341 -0.672345 -0.156375
vn -0.2276 -0.9738 -0.0000
vn -0.2524 -0.9676 -0.0000
vn -0.0055 -1.0000 -0.0000
vn 0.2003 -0.9797 -0.0000
vn -0.0000 -0.0000 1.0000
vn 0.1440 0.9896 -0.0000
vn 0.1735 0.9848 -0.0000
vn 0.1082 0.9941 -0.0000
vn 0.1020 0.9948 -0.0000
vn 0.2381 0.9712 -0.0000
vn 0.1671 0.9859 -0.0000
vn 0.3550 0.9349 -0.0000
vn 0.4018 0.9157 -0.0000
vn -0.2329 -0.9725 -0.0000
vn -0.1725 -0.9850 -0.0000
vn -0.2871 -0.9579 -0.0000
vn -0.2820 -0.9594 -0.0000
vn 0.2380 0.9713 -0.0000
vn 0.2752 -0.9614 -0.0000
vn 0.7882 -0.6154 -0.0000
vn -0.1789 -0.9839 -0.0000
vn 0.9695 0.2453 -0.0000
vn 0.9999 0.0160 0.0002
vn 0.7263 0.6874 -0.0000
vn 0.4743 0.8804 -0.0000
vn -0.8410 -0.5410 -0.0000
vn -0.9882 -0.1530 -0.0000
vn -0.5983 -0.8012 -0.0000
vn 0.4474 0.8943 -0.0000
vn 0.9998 0.0192 -0.0000
vn 0.9957 -0.0930 -0.0000
vn 0.9308 0.3656 -0.0000
vn 0.8053 0.5929 -0.0003
vn -0.3459 0.9383 -0.0000
vn -0.8007 0.5991 -0.0000
vn 0.0850 0.9964 -0.0000
vn -0.9406 -0.3396 -0.0000
vn -0.9982 -0.0605 -0.0000
vn -0.8190 -0.5738 -0.0000
vn 0.8053 0.5929 -0.0000
vn 0.6382 0.7699 -0.0000
vn 0.4957 -0.8685 -0.0000
vn 0.8318 -0.5551 -0.0000
vn 0.1339 -0.9910 -0.0000
vn -0.7919 0.6106 -0.0000
vn -0.9112 0.4120 -0.0004
vn -0.6392 0.7691 -0.0000
vn -0.7460 -0.6659 -0.0000
vn -0.9782 -0.2077 -0.0000
vn -0.3178 -0.9481 -0.0000
vn -0.2154 -0.9765 -0.0000
vn 0.5337 -0.8457 -0.0000
vn 0.8406 -0.5416 -0.0000
vn 0.1935 -0.9811 -0.0000
vn 0.8256 0.5642 -0.0000
vn 0.9866 0.1633 -0.0000
vn 0.5672 0.8236 -0.0000
vn -0.9382 0.3462 -0.0000
vn -0.8746 0.4849 -0.0000
vn -0.9750 -0.2224 -0.0000
vn -0.7134 -0.7008 -0.0000
vn -0.7133 -0.7008 -0.0000
vn -0.3577 -0.9338 -0.0000
vn -0.3166 0.9485 -0.0000
vn -0.5908 0.8068 -0.0000
vn -0.0389 0.9992 -0.0000
vn 0.9241 0.3821 -0.0000
vn 0.9933 -0.1158 -0.0000
vn 0.6969 0.7172 -0.0000
vn 0.5749 -0.8182 -0.0000
vn 0.7412 -0.6712 -0.0000
vn -0.9112 0.4120 -0.0000
vn -0.7919 0.6107 -0.0000
vn -0.7460 -0.6660 -0.0000
vn 0.5337 -0.8457 0.0002
vn 0.8256 0.5643 -0.0000
vn 0.2753 -0.9614 -0.0000
vn 0.9999 0.0160 -0.0000
vn -0.3458 0.9383 -0.0000
vn -0.9382 0.3461 -0.0003
vn -0.0000 1.0000 -0.0000
vn -0.9792 0.2027 -0.0000
vn 0.5749 -0.8183 -0.0000
vn -0.1724 -0.9850 -0.0000
vn -0.2328 -0.9725 -0.0000
vn 0.9792 -0.0000 0.2029
vn 0.3185 -0.0000 0.9479
vn 0.4858 -0.0000 0.8740
vn 1.0000 -0.0000 -0.0000
vn 0.3185 0.0002 0.9479
vn -0.6370 -0.0000 0.7709
vn -0.4858 -0.0000 0.8740
vn -0.9792 -0.0000 -0.2029
vn -1.0000 -0.0000 -0.0000
vn -0.3185 -0.0000 -0.9479
vn -0.4858 -0.0000 -0.8740
vn -0.3185 0.0002 -0.9479
vn 0.6370 -0.0000 -0.7709
vn 0.4858 -0.0000 -0.8740
vn 1.0000 -0.0002 -0.0000
vn 0.6370 -0.0000 0.7709
vn 0.6370 -0.0001 0.7709
vn 0.9792 -0.0000 -0.2029
vn -0.3185 -0.0000 0.9479
vn -0.3185 -0.0002 0.9479
vn -0.9792 -0.0000 0.2029
vn -0.6370 -0.0000 -0.7709
vn -0.6370 0.0001 -0.7709
vn 0.3185 -0.0000 -0.9479
vn 0.3185 -0.0002 -0.9479
vt 0.991398 0.704378
vt 0.657986 0.152015
vt 0.914620 0.703696
vt 0.914145 0.869857
vt 0.925444 0.143014
vt 0.993642 0.870237
vt 0.994879 0.154983
vt 0.848071 0.154645
vt 0.654821 0.373090
vt 0.994877 0.323082
vt 0.844905 0.380648
vt 0.649323 0.540323
vt 0.459112 0.543347
vt 0.464736 0.365532
vt 0.649386 0.711007
vt 0.644614 0.994210
vt 0.992629 0.795427
vt 0.455349 0.986838
vt 0.990343 0.626489
vt 0.459151 0.710515
vt 0.914359 0.794912
vt 0.914843 0.625665
vt 0.274651 0.357973
vt 0.268901 0.546371
vt 0.994873 0.672218
vt 0.078691 0.549395
vt 0.994875 0.522566
vt 0.084567 0.350415
vt 0.268917 0.710024
vt 0.266169 0.978229
vt 0.988049 0.456897
vt 0.985855 0.294772
vt 0.076006 0.983739
vt 0.994872 0.821869
vt 0.985569 0.273438
vt 0.078683 0.709533
vt 0.915329 0.455765
vt 0.915793 0.293345
vt 0.986991 0.378469
vt 0.277049 0.165401
vt 0.915553 0.377196
vt 0.915087 0.540170
vt 0.989192 0.541150
vt 0.467554 0.157826
vt 0.925439 0.599014
vt 0.888944 0.713618
vt 0.994874 0.610983
vt 0.994874 0.622386
vt 0.892274 0.704038
vt 0.839620 0.711498
vt 0.925439 0.610417
vt 0.884891 0.975020
vt 0.994873 0.702301
vt 0.994872 0.793638
vt 0.834285 0.995760
vt 0.994873 0.961286
vt 0.925438 0.690332
vt 0.925437 0.781669
vt 0.913884 0.961071
vt 0.030281 0.747758
vt 0.994871 0.863954
vt 0.925436 0.851986
vt 0.925437 0.809901
vt 0.915854 0.271971
vt 0.915909 0.252670
vt 0.925435 0.989051
vt 0.985307 0.254171
vt 0.026562 0.987807
vt 0.994870 1.001019
vt 0.897123 0.569341
vt 0.994876 0.483054
vt 0.897232 0.652767
vt 0.811391 0.628363
vt 0.994875 0.513551
vt 0.994876 0.472734
vt 0.839534 0.537298
vt 0.925440 0.501583
vt 0.925439 0.575578
vt 0.994874 0.587546
vt 0.838637 0.651847
vt 0.915949 0.238591
vt 0.925437 0.814029
vt 0.985118 0.240118
vt 0.041222 0.702009
vt 0.994872 0.825997
vt 0.043649 0.604242
vt 0.994873 0.726471
vt 0.925438 0.714502
vt 0.925438 0.660249
vt 0.925441 0.471085
vt 0.925441 0.460765
vt 0.925440 0.466908
vt 0.052617 0.280282
vt 0.994875 0.478876
vt 0.925440 0.510598
vt 0.054270 0.156472
vt 0.994876 0.391085
vt 0.994877 0.372914
vt 0.984704 0.209433
vt 0.087384 0.152566
vt 0.925441 0.379117
vt 0.925442 0.360946
vt 0.916037 0.207850
vt 0.925442 0.322687
vt 0.887063 0.412256
vt 0.994877 0.334655
vt 0.925442 0.311113
vt 0.880912 0.506728
vt 0.994876 0.438814
vt 0.925441 0.426846
vt 0.027509 0.522508
vt 0.994873 0.669385
vt 0.000500 0.423720
vt 0.994874 0.602582
vt 0.925439 0.590613
vt 0.925439 0.549514
vt 0.994874 0.561483
vt 0.001273 0.369669
vt 0.925438 0.657416
vt 0.904102 0.321108
vt 0.994878 0.260747
vt 0.925443 0.248779
vt 0.925444 0.164226
vt 0.882101 0.168984
vt 0.994879 0.176194
vt 0.972347 0.993889
vt 0.986407 0.993889
vt 0.930167 0.993889
vt 0.944227 0.993889
vt 0.972347 0.993889
vt 0.944227 0.993889
vt 0.972347 0.783420
vt 0.986407 0.783420
vt 0.944227 0.783420
vt 0.930167 0.783420
vt 0.944227 0.783420
vt 0.972347 0.783420
vt 0.972347 0.572952
vt 0.986407 0.572952
vt 0.944227 0.572952
vt 0.930167 0.572952
vt 0.944227 0.572952
vt 0.972347 0.572952
vt 0.972347 0.362483
vt 0.986407 0.362483
vt 0.944227 0.362483
vt 0.930167 0.362483
vt 0.944227 0.362483
vt 0.972347 0.362483
vt 0.972347 0.152015
vt 0.986407 0.152015
vt 0.944227 0.152015
vt 0.930167 0.152015
vt 0.944227 0.152015
vt 0.972347 0.152015
s 0
g Cylinder01_0_Cylinder01_0
usemtl Cylinder01_0
f 1/1/1 2/3/2 3/4/3
f 3/4/3 4/6/4 1/1/1
f 5/9/5 1/2/5 4/8/5
f 4/8/5 6/11/5 5/9/5
f 5/9/5 7/12/5 8/13/5
f 8/13/5 9/14/5 5/9/5
f 10/15/5 11/16/5 12/18/5
f 12/18/5 13/20/5 10/15/5
f 7/12/5 10/15/5 13/20/5
f 13/20/5 8/13/5 7/12/5
f 11/17/6 14/21/7 15/22/8
f 15/22/8 12/19/9 11/17/6
f 16/23/5 17/24/5 18/26/5
f 18/26/5 19/28/5 16/23/5
f 20/29/5 21/30/5 22/33/5
f 22/33/5 23/36/5 20/29/5
f 17/24/5 20/29/5 23/36/5
f 23/36/5 18/26/5 17/24/5
f 21/31/10 24/37/11 25/38/12
f 25/38/12 22/32/13 21/31/10
f 26/39/14 27/41/15 28/42/16
f 28/42/16 29/43/17 26/39/14
f 16/23/5 26/40/5 29/44/5
f 29/44/5 9/14/5 16/23/5
f 9/14/5 8/13/5 17/24/5
f 17/24/5 16/23/5 9/14/5
f 13/20/5 12/18/5 21/30/5
f 21/30/5 20/29/5 13/20/5
f 8/13/5 13/20/5 20/29/5
f 20/29/5 17/24/5 8/13/5
f 12/19/9 15/22/8 24/37/11
f 24/37/11 21/31/18 12/19/9
f 29/43/17 28/42/16 2/3/2
f 2/3/2 1/1/1 29/43/17
f 9/14/5 29/44/5 1/2/5
f 1/2/5 5/9/5 9/14/5
f 30/45/19 31/47/20 32/48/21
f 32/48/21 33/51/21 30/45/19
f 31/46/5 34/52/5 35/55/5
f 35/55/5 32/50/5 31/46/5
f 34/53/22 36/57/23 37/58/24
f 37/58/24 35/54/25 34/53/22
f 38/61/26 39/62/27 40/63/28
f 40/63/28 23/34/28 38/61/26
f 41/65/29 42/67/29 22/32/13
f 22/32/13 25/38/12 41/65/29
f 42/68/5 38/60/5 23/36/5
f 23/36/5 22/33/5 42/68/5
f 43/70/5 44/72/5 32/50/5
f 32/50/5 45/76/5 43/70/5
f 44/74/30 46/77/31 47/78/32
f 47/78/32 48/79/33 44/74/30
f 49/81/34 50/83/35 23/35/36
f 23/35/36 40/64/36 49/81/34
f 50/84/5 51/86/5 18/26/5
f 18/26/5 23/36/5 50/84/5
f 51/87/37 52/88/38 53/89/39
f 53/89/39 18/25/39 51/87/37
f 48/79/40 47/78/32 33/51/41
f 33/51/41 32/48/41 48/79/40
f 54/90/42 43/71/43 45/75/44
f 45/75/44 55/91/44 54/90/42
f 32/49/5 44/73/5 48/80/5
f 56/92/45 57/94/46 19/27/47
f 19/27/47 58/95/47 56/92/45
f 57/93/5 59/96/5 60/100/5
f 60/100/5 19/28/5 57/93/5
f 59/97/48 61/101/49 62/102/50
f 62/102/50 60/98/51 59/97/48
f 63/104/52 64/106/53 6/10/54
f 6/10/54 65/107/54 63/104/52
f 64/105/5 66/108/5 45/76/5
f 45/76/5 6/11/5 64/105/5
f 66/109/55 67/110/56 55/91/57
f 55/91/57 45/75/57 66/109/55
f 18/26/5 68/111/5 69/113/5
f 69/114/58 70/115/59 71/116/60
f 71/116/60 72/117/61 69/114/58
f 72/117/62 71/116/60 58/95/63
f 58/95/63 19/27/63 72/117/62
f 73/119/64 68/112/65 18/25/66
f 18/25/66 53/89/66 73/119/64
f 72/118/5 19/28/5 18/26/5
f 18/26/5 69/113/5 72/118/5
f 74/121/67 75/122/68 65/107/69
f 65/107/69 6/10/69 74/121/67
f 76/123/70 77/125/71 4/7/4
f 4/7/4 3/5/3 76/123/70
f 77/124/5 74/120/5 6/11/5
f 6/11/5 4/8/5 77/124/5
f 57/94/72 56/92/73 61/101/49
f 61/101/49 59/97/74 57/94/72
f 64/106/53 63/104/75 67/110/56
f 67/110/56 66/109/76 64/106/53
f 5/9/5 6/11/5 45/76/5
f 45/76/5 7/12/5 5/9/5
f 31/47/20 30/45/77 36/57/78
f 36/57/78 34/53/22 31/47/20
f 10/15/5 32/50/5 35/55/5
f 35/55/5 11/16/5 10/15/5
f 50/85/35 49/82/79 52/88/38
f 52/88/38 51/87/37 50/85/35
f 68/112/65 73/119/64 70/115/59
f 70/115/59 69/114/80 68/112/65
f 43/71/43 54/90/42 46/77/31
f 46/77/31 44/74/30 43/71/43
f 7/12/5 45/76/5 32/50/5
f 32/50/5 10/15/5 7/12/5
f 78/126/81 79/127/81 80/128/81
f 81/129/81 78/126/81 80/128/81
f 82/130/81 83/131/81 80/128/81
f 79/127/81 82/130/81 80/128/81
f 42/69/82 41/66/82 39/62/27
f 39/62/27 38/61/26 42/69/82
f 35/56/25 37/59/24 14/21/7
f 14/21/7 11/17/6 35/56/25
f 77/125/71 76/123/83 75/122/68
f 75/122/68 74/121/67 77/125/71
f 60/99/51 62/103/50 27/41/84
f 27/41/84 26/39/85 60/99/51
f 19/28/5 60/100/5 26/40/5
f 26/40/5 16/23/5 19/28/5
f 79/127/86 78/126/87 84/132/88
f 84/132/88 85/133/89 79/127/86
f 78/126/90 81/129/91 86/134/92
f 86/134/92 84/132/88 78/126/87
f 81/129/91 80/128/93 87/135/94
f 87/135/94 86/134/92 81/129/91
f 80/128/93 83/131/95 88/136/96
f 88/136/96 87/135/94 80/128/93
f 83/131/97 82/130/98 89/137/99
f 89/137/99 88/136/96 83/131/95
f 82/130/98 79/127/86 85/133/89
f 85/133/89 89/137/99 82/130/98
f 85/133/89 84/132/88 90/138/88
f 90/138/88 91/139/89 85/133/89
f 84/132/88 86/134/92 92/140/92
f 92/140/92 90/138/88 84/132/88
f 86/134/92 87/135/94 93/141/94
f 93/141/94 92/140/92 86/134/92
f 87/135/94 88/136/96 94/142/96
f 94/142/96 93/141/94 87/135/94
f 88/136/96 89/137/99 95/143/99
f 95/143/99 94/142/96 88/136/96
f 89/137/99 85/133/89 91/139/89
f 91/139/89 95/143/99 89/137/99
f 91/139/100 90/138/88 96/144/88
f 96/144/88 97/145/89 91/139/89
f 90/138/88 92/140/92 98/146/92
f 98/146/92 96/144/88 90/138/88
f 92/140/92 93/141/94 99/147/94
f 99/147/94 98/146/92 92/140/92
f 93/141/94 94/142/96 100/148/96
f 100/148/96 99/147/94 93/141/94
f 94/142/96 95/143/99 101/149/99
f 101/149/99 100/148/96 94/142/96
f 95/143/99 91/139/89 97/145/89
f 97/145/89 101/149/99 95/143/99
f 97/145/100 96/144/88 102/150/101
f 102/150/102 103/151/103 97/145/89
f 96/144/88 98/146/92 104/152/104
f 104/152/105 102/150/101 96/144/88
f 98/146/92 99/147/94 105/153/106
f 105/153/106 104/152/104 98/146/92
f 99/147/94 100/148/96 106/154/107
f 106/154/108 105/153/106 99/147/94
f 100/148/96 101/149/99 107/155/109
f 107/155/110 106/154/107 100/148/96
f 101/149/99 97/145/89 103/151/103
f 103/151/103 107/155/109 101/149/99
