# Blender 3.3.0
# www.blender.org
mtllib metalBlock.mtl
g wavefront_obj_wavefront_obj
v 0.171045 -0.098798 -0.158950
v 0.171045 -0.098798 0.158950
v 0.190898 -0.091882 0.177399
v 0.190898 -0.091882 -0.177400
v 0.190898 -0.111361 -0.177400
v 0.190898 -0.111361 0.177399
v 0.171045 -0.103872 0.158950
v 0.171045 -0.103872 -0.158950
v 0.190898 -0.111361 -0.177400
v 0.171045 -0.103872 -0.158950
v 0.177399 -0.111361 -0.190898
v 0.158950 -0.103872 -0.171045
v -0.177399 -0.111361 -0.190898
v 0.177399 -0.111361 -0.190898
v 0.158950 -0.103872 -0.171045
v -0.158950 -0.103872 -0.171045
v -0.177399 -0.111361 -0.190898
v -0.158950 -0.103872 -0.171045
v -0.190898 -0.111361 -0.177400
v -0.171045 -0.103872 -0.158950
v -0.190898 -0.111361 0.177399
v -0.190898 -0.111361 -0.177400
v -0.171045 -0.103872 -0.158950
v -0.171045 -0.103872 0.158950
v -0.190898 -0.111361 0.177399
v -0.171045 -0.103872 0.158950
v -0.177399 -0.111361 0.190898
v -0.158950 -0.103872 0.171045
v 0.177399 -0.111361 0.190898
v -0.177399 -0.111361 0.190898
v -0.158950 -0.103872 0.171045
v 0.158950 -0.103872 0.171045
v 0.177399 -0.111361 0.190898
v 0.158950 -0.103872 0.171045
v 0.190898 -0.111361 0.177399
v 0.171045 -0.103872 0.158950
v 0.171045 -0.098798 0.158950
v 0.158950 -0.098798 0.171045
v 0.177399 -0.091882 0.190898
v 0.190898 -0.091882 0.177399
v -0.177399 -0.091882 0.190898
v 0.177399 -0.091882 0.190898
v -0.158950 -0.098798 0.171045
v 0.158950 -0.098798 0.171045
v -0.171045 -0.098798 0.158950
v -0.190898 -0.091882 0.177399
v -0.177399 -0.091882 0.190898
v -0.158950 -0.098798 0.171045
v -0.190898 -0.091882 -0.177400
v -0.190898 -0.091882 0.177399
v -0.171045 -0.098798 -0.158950
v -0.171045 -0.098798 0.158950
v -0.158950 -0.098798 -0.171045
v -0.177399 -0.091882 -0.190898
v -0.190898 -0.091882 -0.177400
v -0.171045 -0.098798 -0.158950
v 0.177399 -0.091882 -0.190898
v -0.177399 -0.091882 -0.190898
v 0.158950 -0.098798 -0.171045
v -0.158950 -0.098798 -0.171045
v 0.177399 -0.091882 -0.190898
v 0.158950 -0.098798 -0.171045
v 0.171045 -0.098798 -0.158950
v 0.190898 -0.091882 -0.177400
v -0.171045 -0.098798 0.158950
v -0.158950 -0.098798 0.171045
v -0.171045 -0.103872 0.158950
v -0.158950 -0.103872 0.171045
v -0.171045 -0.098798 -0.158950
v -0.171045 -0.103872 -0.158950
v -0.158950 -0.103872 -0.171045
v -0.158950 -0.098798 -0.171045
v 0.158950 -0.098798 -0.171045
v 0.158950 -0.103872 -0.171045
v 0.171045 -0.103872 -0.158950
v 0.171045 -0.098798 -0.158950
v 0.158950 -0.098798 0.171045
v 0.171045 -0.098798 0.158950
v 0.158950 -0.103872 0.171045
v 0.171045 -0.103872 0.158950
v -0.171045 -0.103872 -0.158950
v -0.171045 -0.098798 -0.158950
v -0.171045 -0.098798 0.158950
v -0.171045 -0.103872 0.158950
v -0.158950 -0.098798 0.171045
v 0.158950 -0.098798 0.171045
v -0.158950 -0.103872 0.171045
v 0.158950 -0.103872 0.171045
v 0.158950 -0.103872 -0.171045
v 0.158950 -0.098798 -0.171045
v -0.158950 -0.098798 -0.171045
v -0.158950 -0.103872 -0.171045
v 0.171045 -0.098798 0.158950
v 0.171045 -0.098798 -0.158950
v 0.171045 -0.103872 0.158950
v 0.171045 -0.103872 -0.158950
v -0.190898 -0.111361 0.177399
v -0.177399 -0.111361 0.190898
v -0.190898 -0.091882 -0.177400
v -0.177399 -0.091882 -0.190898
v -0.190898 0.264959 -0.177400
v -0.177399 0.267415 -0.190898
v 0.177399 0.267415 -0.190898
v 0.177399 -0.091882 -0.190898
v 0.190898 -0.091882 -0.177400
v 0.190898 0.264814 -0.177400
v 0.177399 -0.111361 0.190898
v 0.190898 -0.111361 0.177399
v -0.190898 -0.111361 -0.177400
v -0.190898 -0.111361 0.177399
v -0.177399 -0.111361 0.190898
v 0.177399 -0.111361 0.190898
v 0.177399 -0.111361 -0.190898
v -0.177399 -0.111361 -0.190898
v 0.190898 -0.111361 0.177399
v 0.190898 -0.111361 -0.177400
v -0.190898 0.264959 0.177399
v -0.177399 0.263128 0.190898
v -0.177399 -0.091882 0.190898
v -0.190898 -0.091882 0.177399
v -0.177399 0.281667 0.177399
v 0.177399 0.281667 0.177399
v -0.177399 0.263128 0.190898
v 0.177399 0.263128 0.190898
v -0.190898 0.264959 -0.177400
v -0.177399 0.281667 -0.177400
v -0.177399 0.281667 0.177399
v -0.190898 0.264959 0.177399
v -0.177399 0.267415 -0.190898
v 0.177399 0.267415 -0.190898
v -0.177399 0.281667 -0.177400
v 0.177399 0.281667 -0.177400
v -0.177399 -0.111361 -0.190898
v -0.190898 -0.111361 -0.177400
v 0.190898 -0.111361 -0.177400
v 0.177399 -0.111361 -0.190898
v 0.177399 0.263128 0.190898
v 0.190898 0.264814 0.177399
v 0.190898 -0.091882 0.177399
v 0.177399 -0.091882 0.190898
v 0.177399 0.281667 -0.177400
v 0.190898 0.264814 -0.177400
v 0.190898 0.264814 0.177399
v 0.177399 0.281667 0.177399
v -0.177399 0.263128 0.190898
v -0.190898 0.264959 0.177399
v -0.177399 0.281667 0.177399
v -0.177399 0.281667 -0.177400
v -0.190898 0.264959 -0.177400
v -0.177399 0.267415 -0.190898
v 0.177399 0.263128 0.190898
v 0.177399 0.281667 0.177399
v 0.190898 0.264814 0.177399
v 0.190898 0.264814 -0.177400
v 0.177399 0.281667 -0.177400
v 0.177399 0.267415 -0.190898
v -0.190898 0.264959 0.177399
v -0.190898 -0.091882 0.177399
v -0.190898 0.264959 -0.177400
v -0.190898 -0.091882 -0.177400
v 0.177399 0.263128 0.190898
v 0.177399 -0.091882 0.190898
v -0.177399 -0.091882 0.190898
v -0.177399 0.263128 0.190898
v 0.177399 0.281667 -0.177400
v 0.177399 0.281667 0.177399
v -0.177399 0.281667 0.177399
v -0.177399 0.281667 -0.177400
v -0.177399 0.267415 -0.190898
v -0.177399 -0.091882 -0.190898
v 0.177399 0.267415 -0.190898
v 0.177399 -0.091882 -0.190898
v 0.190898 0.264814 -0.177400
v 0.190898 -0.091882 -0.177400
v 0.190898 -0.091882 0.177399
v 0.190898 0.264814 0.177399
vn -0.6481 0.5237 -0.5529
vn -0.5888 0.4758 0.6534
vn 0.5922 0.4743 0.6514
vn -1.0000 -0.0000 -0.0000
vn -0.0000 1.0000 -0.0000
vn -0.0000 -0.0000 1.0000
vn -0.0000 0.6877 -0.7260
vn -0.7778 0.6285 -0.0000
vn -0.0000 0.5886 0.8084
vn -0.7071 -0.0000 0.7071
vn 0.7071 -0.0000 -0.7071
vn -0.7071 -0.0000 -0.7071
vn 1.0000 -0.0000 -0.0000
vn -0.0000 -0.0000 -1.0000
vn 0.7071 -0.0000 0.7071
vn 0.1749 -0.9689 -0.1750
vn 0.1750 -0.9689 -0.1750
vn -0.0000 -0.9443 -0.3290
vn -0.1749 -0.9689 -0.1749
vn -0.1749 -0.9689 -0.1750
vn -0.3290 -0.9443 -0.0000
vn -0.1750 -0.9689 0.1750
vn -0.0000 -0.9443 0.3290
vn 0.1750 -0.9689 0.1750
vn 0.1884 0.9638 0.1884
vn -0.0000 0.9357 0.3529
vn -0.1884 0.9638 0.1884
vn -0.3529 0.9357 -0.0000
vn -0.1884 0.9638 -0.1884
vn -0.0000 0.9357 -0.3529
vn 0.1884 0.9638 -0.1884
vn 0.3529 0.9357 -0.0000
vn 0.3290 -0.9443 -0.0000
vn 0.7805 0.6252 -0.0000
vn 0.6514 0.5218 -0.5509
vt 0.462842 -0.458264
vt 0.462842 -0.060317
vt 0.487669 -0.037245
vt 0.487669 -0.480930
vt 0.487669 -0.480930
vt 0.487669 -0.037245
vt 0.462842 -0.060317
vt 0.462842 -0.458264
vt 0.487669 -0.480930
vt 0.462842 -0.458264
vt 0.470789 -0.497810
vt 0.447702 -0.473404
vt 0.027105 -0.497810
vt 0.470789 -0.497810
vt 0.447702 -0.473404
vt 0.049755 -0.473404
vt 0.027105 -0.497810
vt 0.049755 -0.473404
vt 0.010225 -0.480930
vt 0.034615 -0.458264
vt 0.010225 -0.037245
vt 0.010225 -0.480930
vt 0.034615 -0.458264
vt 0.034615 -0.060317
vt 0.010225 -0.037245
vt 0.034615 -0.060317
vt 0.027105 -0.020365
vt 0.049755 -0.045177
vt 0.470789 -0.020365
vt 0.027105 -0.020365
vt 0.049755 -0.045177
vt 0.447702 -0.045177
vt 0.470789 -0.020365
vt 0.447702 -0.045177
vt 0.487669 -0.037245
vt 0.462842 -0.060317
vt 0.462842 -0.060317
vt 0.447702 -0.045177
vt 0.470789 -0.020365
vt 0.487669 -0.037245
vt 0.027105 -0.020365
vt 0.470789 -0.020365
vt 0.049755 -0.045177
vt 0.447702 -0.045177
vt 0.034615 -0.060317
vt 0.010225 -0.037245
vt 0.027105 -0.020365
vt 0.049755 -0.045177
vt 0.010225 -0.480930
vt 0.010225 -0.037245
vt 0.034615 -0.458264
vt 0.034615 -0.060317
vt 0.049755 -0.473404
vt 0.027105 -0.497810
vt 0.010225 -0.480930
vt 0.034615 -0.458264
vt 0.470789 -0.497810
vt 0.027105 -0.497810
vt 0.447702 -0.473404
vt 0.049755 -0.473404
vt 0.470789 -0.497810
vt 0.447702 -0.473404
vt 0.462842 -0.458264
vt 0.487669 -0.480930
vt 0.498848 -0.033252
vt 0.498848 -0.028678
vt 0.499803 -0.033252
vt 0.499803 -0.028678
vt 0.498848 -0.028678
vt 0.499803 -0.028678
vt 0.499803 -0.033252
vt 0.498848 -0.033252
vt 0.498848 -0.153479
vt 0.499803 -0.153479
vt 0.499803 -0.158053
vt 0.498848 -0.158053
vt 0.499803 -0.028678
vt 0.499803 -0.033252
vt 0.498848 -0.028678
vt 0.498848 -0.033252
vt 0.504342 -0.159211
vt 0.503313 -0.159211
vt 0.503313 -0.029837
vt 0.504342 -0.029837
vt 0.503313 -0.159211
vt 0.503313 -0.029837
vt 0.504342 -0.159211
vt 0.504342 -0.029837
vt 0.499803 -0.153479
vt 0.498848 -0.153479
vt 0.498848 -0.033252
vt 0.499803 -0.033252
vt 0.499803 -0.033252
vt 0.499803 -0.153479
vt 0.498848 -0.033252
vt 0.498848 -0.153479
vt 0.484918 -0.946129
vt 0.484918 -0.961545
vt 0.077373 -0.946129
vt 0.074569 -0.961545
vt 0.074569 -0.961545
vt 0.484918 -0.961545
vt 0.484918 -0.946129
vt 0.077539 -0.946129
vt 0.077373 -0.540916
vt 0.079465 -0.525500
vt 0.484918 -0.525500
vt 0.484918 -0.540916
vt 0.527272 -0.035022
vt 0.978009 -0.035022
vt 0.527272 -0.017873
vt 0.978009 -0.017873
vt 0.510124 -0.485758
vt 0.527272 -0.485758
vt 0.527272 -0.035022
vt 0.510124 -0.035022
vt 0.527272 -0.502907
vt 0.978009 -0.502907
vt 0.527272 -0.485758
vt 0.978009 -0.485758
vt 0.079465 -0.525500
vt 0.077539 -0.540916
vt 0.484918 -0.540916
vt 0.484918 -0.525500
vt 0.978009 -0.485758
vt 0.995157 -0.485758
vt 0.995157 -0.035022
vt 0.978009 -0.035022
vt 0.527272 -0.017873
vt 0.510124 -0.035022
vt 0.527272 -0.035022
vt 0.527272 -0.485758
vt 0.510124 -0.485758
vt 0.527272 -0.502907
vt 0.978009 -0.017873
vt 0.978009 -0.035022
vt 0.995157 -0.035022
vt 0.995157 -0.485758
vt 0.978009 -0.485758
vt 0.978009 -0.502907
vt 0.077373 -0.540916
vt 0.484918 -0.540916
vt 0.077373 -0.946129
vt 0.484918 -0.946129
vt 0.079465 -0.540916
vt 0.484918 -0.540916
vt 0.484918 -0.946129
vt 0.079465 -0.946129
vt 0.978009 -0.485758
vt 0.978009 -0.035022
vt 0.527272 -0.035022
vt 0.527272 -0.485758
vt 0.074569 -0.946129
vt 0.484918 -0.946129
vt 0.074569 -0.540916
vt 0.484918 -0.540916
vt 0.077539 -0.946129
vt 0.484918 -0.946129
vt 0.484918 -0.540916
vt 0.077539 -0.540916
s 0
g wavefront_obj_acmat_0
usemtl acmat_0
f 149/133/1 148/132/1 150/134/1
f 146/130/2 145/129/2 147/131/2
f 152/136/3 151/135/3 153/137/3
f 160/144/4 158/142/4 159/143/4
f 158/142/4 157/141/4 159/143/4
f 168/152/5 167/151/5 165/149/5
f 167/151/5 166/150/5 165/149/5
f 164/148/6 163/147/6 161/145/6
f 163/147/6 162/146/6 161/145/6
f 132/120/7 130/118/7 131/119/7
f 130/118/7 129/117/7 131/119/7
f 128/116/8 127/115/8 125/113/8
f 127/115/8 126/114/8 125/113/8
f 124/112/9 122/110/9 123/111/9
f 122/110/9 121/109/9 123/111/9
f 120/108/10 119/107/10 117/105/10
f 119/107/10 118/106/10 117/105/10
f 106/104/11 105/103/11 103/101/11
f 105/103/11 104/102/11 103/101/11
f 102/100/12 100/98/12 101/99/12
f 100/98/12 99/97/12 101/99/12
f 96/96/13 94/94/13 95/95/13
f 94/94/13 93/93/13 95/95/13
f 92/92/14 91/91/14 89/89/14
f 91/91/14 90/90/14 89/89/14
f 88/88/6 86/86/6 87/87/6
f 86/86/6 85/85/6 87/87/6
f 84/84/4 83/83/4 81/81/4
f 83/83/4 82/82/4 81/81/4
f 80/80/15 78/78/15 79/79/15
f 78/78/15 77/77/15 79/79/15
f 76/76/11 75/75/11 73/73/11
f 75/75/11 74/74/11 73/73/11
f 72/72/12 71/71/12 69/69/12
f 71/71/12 70/70/12 69/69/12
f 68/68/10 66/66/10 67/67/10
f 66/66/10 65/65/10 67/67/10
f 64/64/16 63/63/16 61/61/16
f 63/63/17 62/62/17 61/61/17
f 60/60/18 58/58/18 59/59/18
f 58/58/18 57/57/18 59/59/18
f 56/56/19 55/55/19 53/53/19
f 55/55/20 54/54/20 53/53/20
f 52/52/21 50/50/21 51/51/21
f 50/50/21 49/49/21 51/51/21
f 48/48/22 47/47/22 45/45/22
f 47/47/22 46/46/22 45/45/22
f 44/44/23 42/42/23 43/43/23
f 42/42/23 41/41/23 43/43/23
f 40/40/24 39/39/24 37/37/24
f 39/39/24 38/38/24 37/37/24
f 36/36/25 34/34/25 35/35/25
f 34/34/25 33/33/25 35/35/25
f 32/32/26 31/31/26 29/29/26
f 31/31/26 30/30/26 29/29/26
f 28/28/27 26/26/27 27/27/27
f 26/26/27 25/25/27 27/27/27
f 24/24/28 23/23/28 21/21/28
f 23/23/28 22/22/28 21/21/28
f 20/20/29 18/18/29 19/19/29
f 18/18/29 17/17/29 19/19/29
f 16/16/30 15/15/30 13/13/30
f 15/15/30 14/14/30 13/13/30
f 12/12/31 10/10/31 11/11/31
f 10/10/31 9/9/31 11/11/31
f 8/8/32 7/7/32 5/5/32
f 7/7/32 6/6/32 5/5/32
f 4/4/33 3/3/33 1/1/33
f 3/3/33 2/2/33 1/1/33
f 176/160/13 175/159/13 173/157/13
f 175/159/13 174/158/13 173/157/13
f 172/156/14 170/154/14 171/155/14
f 170/154/14 169/153/14 171/155/14
f 144/128/34 143/127/34 141/125/34
f 143/127/34 142/126/34 141/125/34
f 140/124/15 139/123/15 137/121/15
f 139/123/15 138/122/15 137/121/15
f 155/139/35 154/138/35 156/140/35
l 97 98
l 107 108
l 109 110
l 111 112
l 113 114
l 115 116
l 133 134
l 135 136
